<?xml version="1.0" encoding="UTF-8"?>
<!DOCTYPE svg PUBLIC "-//W3C//DTD SVG 1.1//EN" "http://www.w3.org/Graphics/SVG/1.1/DTD/svg11.dtd">
<svg xmlns="http://www.w3.org/2000/svg" version="1.1" width="369px" height="364px" style="shape-rendering:geometricPrecision; text-rendering:geometricPrecision; image-rendering:optimizeQuality; fill-rule:evenodd; clip-rule:evenodd" xmlns:xlink="http://www.w3.org/1999/xlink">
<g><path style="opacity:1" fill="#f1df06" d="M -0.5,-0.5 C 122.5,-0.5 245.5,-0.5 368.5,-0.5C 368.5,115.833 368.5,232.167 368.5,348.5C 333.167,348.5 297.833,348.5 262.5,348.5C 262.825,340.981 262.492,333.648 261.5,326.5C 257.702,325.517 253.702,325.183 249.5,325.5C 249.826,317.316 249.492,309.316 248.5,301.5C 246.167,301.5 243.833,301.5 241.5,301.5C 242.026,296.193 241.36,291.193 239.5,286.5C 236.98,285.468 234.314,284.968 231.5,285C 230.7,289.08 230.2,293.247 230,297.5C 228.13,299.219 225.963,300.219 223.5,300.5C 223.5,308.833 223.5,317.167 223.5,325.5C 219.629,325.185 215.962,325.518 212.5,326.5C 210.539,333.087 209.872,340.087 210.5,347.5C 207.881,347.768 205.381,347.435 203,346.5C 202.667,340.167 202.333,333.833 202,327.5C 201.617,326.944 201.117,326.611 200.5,326.5C 199.833,326.5 199.167,326.5 198.5,326.5C 196.393,325.532 194.059,325.198 191.5,325.5C 190.763,317.533 190.263,309.533 190,301.5C 187.962,299.928 185.629,298.928 183,298.5C 182.207,294.577 182.374,290.744 183.5,287C 182.552,286.517 181.552,286.351 180.5,286.5C 177.881,286.232 175.381,286.565 173,287.5C 172.501,292.155 172.334,296.821 172.5,301.5C 169.5,301.5 166.5,301.5 163.5,301.5C 161.537,308.424 160.87,315.757 161.5,323.5C 158.15,323.335 154.817,323.502 151.5,324C 151,324.5 150.5,325 150,325.5C 149.5,332.826 149.334,340.159 149.5,347.5C 147.08,347.708 144.747,347.374 142.5,346.5C 142.143,339.45 141.143,332.783 139.5,326.5C 139.389,325.883 139.056,325.383 138.5,325C 135.854,324.503 133.187,324.336 130.5,324.5C 130.216,316.956 130.55,309.456 131.5,302C 130.518,299.991 129.185,299.491 127.5,300.5C 122.409,299.544 122.409,298.211 127.5,296.5C 126.372,295.738 125.205,295.071 124,294.5C 124.107,290.511 122.941,287.011 120.5,284C 118.5,283.333 116.5,283.333 114.5,284C 112.881,284.236 111.881,285.069 111.5,286.5C 111.5,291.5 111.5,296.5 111.5,301.5C 108.302,300.964 105.635,301.631 103.5,303.5C 102.508,310.648 102.175,317.981 102.5,325.5C 98.6286,325.185 94.9619,325.518 91.5,326.5C 91.5,327.167 91.5,327.833 91.5,328.5C 90.5093,334.979 90.176,341.646 90.5,348.5C 60.1667,348.5 29.8333,348.5 -0.5,348.5C -0.5,232.167 -0.5,115.833 -0.5,-0.5 Z"/></g>
<g><path style="opacity:1" fill="#020101" d="M 158.5,28.5 C 174.5,28.5 190.5,28.5 206.5,28.5C 206.17,44.6754 206.504,60.6754 207.5,76.5C 212.305,77.4872 217.305,77.8205 222.5,77.5C 222.169,104.339 222.502,131.005 223.5,157.5C 234.167,157.5 244.833,157.5 255.5,157.5C 255.5,176.5 255.5,195.5 255.5,214.5C 244.833,214.5 234.167,214.5 223.5,214.5C 223.5,206.833 223.5,199.167 223.5,191.5C 207.342,190.504 191.009,190.17 174.5,190.5C 174.5,195.833 174.5,201.167 174.5,206.5C 150.5,206.5 126.5,206.5 102.5,206.5C 102.5,195.833 102.5,185.167 102.5,174.5C 102.833,174.5 103.167,174.5 103.5,174.5C 116.167,174.5 128.833,174.5 141.5,174.5C 141.5,163.833 141.5,153.167 141.5,142.5C 136.695,141.513 131.695,141.179 126.5,141.5C 126.5,120.167 126.5,98.8333 126.5,77.5C 137.346,77.8278 148.013,77.4944 158.5,76.5C 158.5,60.5 158.5,44.5 158.5,28.5 Z"/></g>
<g><path style="opacity:1" fill="#ac9e04" d="M 154.5,32.5 C 154.667,45.8375 154.5,59.1708 154,72.5C 143.248,73.487 132.415,73.8203 121.5,73.5C 121.5,97.8333 121.5,122.167 121.5,146.5C 126.5,146.5 131.5,146.5 136.5,146.5C 136.5,154.167 136.5,161.833 136.5,169.5C 129.5,169.5 122.5,169.5 115.5,169.5C 117.631,168.686 119.964,168.186 122.5,168C 119.774,167.818 117.107,167.318 114.5,166.5C 115.046,165.228 115.379,163.894 115.5,162.5C 114.835,157.519 114.335,152.519 114,147.5C 113.355,146.354 112.522,145.354 111.5,144.5C 112.575,141.562 112.741,138.562 112,135.5C 111.667,137.5 111.333,139.5 111,141.5C 109.409,138.648 108.076,135.648 107,132.5C 103.857,128.872 102.691,124.538 103.5,119.5C 100.538,119.883 99.538,118.883 100.5,116.5C 99.2707,112.188 98.104,107.855 97,103.5C 96.6667,104.167 96.3333,104.833 96,105.5C 95.4424,102.066 94.609,98.7328 93.5,95.5C 92.5,95.5 91.5,95.5 90.5,95.5C 90.9677,91.8687 90.301,88.5354 88.5,85.5C 89.7099,83.1826 89.2099,81.1826 87,79.5C 86.5488,81.9288 85.7155,82.0955 84.5,80C 85.7528,76.0266 85.4195,71.8599 83.5,67.5C 83.9767,66.5224 84.6433,65.6891 85.5,65C 84.0494,65.2626 82.7161,65.0959 81.5,64.5C 82.2427,63.8182 82.9094,63.1515 83.5,62.5C 99.3039,55.3924 115.304,48.5591 131.5,42C 138.681,37.7454 146.348,34.5787 154.5,32.5 Z"/></g>
<g><path style="opacity:1" fill="#e8dd2a" d="M 207.5,27.5 C 190.991,27.1702 174.658,27.5036 158.5,28.5C 158.5,44.5 158.5,60.5 158.5,76.5C 147.5,76.5 136.5,76.5 125.5,76.5C 125.5,98.5 125.5,120.5 125.5,142.5C 130.305,143.487 135.305,143.821 140.5,143.5C 140.5,153.5 140.5,163.5 140.5,173.5C 127.989,173.171 115.655,173.505 103.5,174.5C 103.167,174.5 102.833,174.5 102.5,174.5C 99.821,174.475 98.4877,173.142 98.5,170.5C 111.5,170.5 124.5,170.5 137.5,170.5C 137.826,162.316 137.492,154.316 136.5,146.5C 131.5,146.5 126.5,146.5 121.5,146.5C 121.5,122.167 121.5,97.8333 121.5,73.5C 132.415,73.8203 143.248,73.487 154,72.5C 154.5,59.1708 154.667,45.8375 154.5,32.5C 152.841,29.4664 153.341,26.7997 156,24.5C 169.785,25.8102 183.618,25.8102 197.5,24.5C 200.475,25.1393 203.475,25.6393 206.5,26C 207.056,26.3826 207.389,26.8826 207.5,27.5 Z"/></g>
<g><path style="opacity:1" fill="#897f3f" d="M 158.5,28.5 C 174.658,27.5036 190.991,27.1702 207.5,27.5C 207.5,28.8333 207.5,30.1667 207.5,31.5C 207.5,46.5 207.5,61.5 207.5,76.5C 206.504,60.6754 206.17,44.6754 206.5,28.5C 190.5,28.5 174.5,28.5 158.5,28.5 Z"/></g>
<g><path style="opacity:1" fill="#bcaf0d" d="M 83.5,62.5 C 82.9094,63.1515 82.2427,63.8182 81.5,64.5C 82.7161,65.0959 84.0494,65.2626 85.5,65C 84.6433,65.6891 83.9767,66.5224 83.5,67.5C 85.4195,71.8599 85.7528,76.0266 84.5,80C 85.7155,82.0955 86.5488,81.9288 87,79.5C 89.2099,81.1826 89.7099,83.1826 88.5,85.5C 90.301,88.5354 90.9677,91.8687 90.5,95.5C 91.5,95.5 92.5,95.5 93.5,95.5C 94.609,98.7328 95.4424,102.066 96,105.5C 96.3333,104.833 96.6667,104.167 97,103.5C 98.104,107.855 99.2707,112.188 100.5,116.5C 99.538,118.883 100.538,119.883 103.5,119.5C 102.691,124.538 103.857,128.872 107,132.5C 108.076,135.648 109.409,138.648 111,141.5C 111.333,139.5 111.667,137.5 112,135.5C 112.741,138.562 112.575,141.562 111.5,144.5C 112.522,145.354 113.355,146.354 114,147.5C 114.335,152.519 114.835,157.519 115.5,162.5C 115.379,163.894 115.046,165.228 114.5,166.5C 117.107,167.318 119.774,167.818 122.5,168C 119.964,168.186 117.631,168.686 115.5,169.5C 114.167,169.5 112.833,169.5 111.5,169.5C 111.5,168.5 111.5,167.5 111.5,166.5C 108.794,166.425 106.127,166.092 103.5,165.5C 102.947,163.061 102.947,160.727 103.5,158.5C 102.675,157.614 101.675,157.281 100.5,157.5C 101.145,152.685 99.3115,151.019 95,152.5C 94.4795,150.711 94.8129,149.044 96,147.5C 96.9195,147.07 97.7528,146.736 98.5,146.5C 97.1924,144.359 95.6924,142.359 94,140.5C 92.1511,135.436 90.1511,130.436 88,125.5C 87.6667,122.167 87.3333,118.833 87,115.5C 85.5135,116.741 84.6801,116.241 84.5,114C 83.6121,107.726 82.2788,101.56 80.5,95.5C 79.7022,97.0777 79.2022,98.7444 79,100.5C 78.6667,99.5 78.3333,98.5 78,97.5C 77.6667,97.8333 77.3333,98.1667 77,98.5C 75.2519,96.9464 75.0852,95.2798 76.5,93.5C 76.0575,85.5225 73.3909,78.5225 68.5,72.5C 69.2599,70.6396 70.2599,68.973 71.5,67.5C 75.0363,65.0253 79.0363,63.3586 83.5,62.5 Z"/></g>
<g><path style="opacity:1" fill="#595109" d="M 158.5,76.5 C 148.013,77.4944 137.346,77.8278 126.5,77.5C 126.5,98.8333 126.5,120.167 126.5,141.5C 131.695,141.179 136.695,141.513 141.5,142.5C 136.167,142.5 130.833,142.5 125.5,142.5C 125.5,120.5 125.5,98.5 125.5,76.5C 136.5,76.5 147.5,76.5 158.5,76.5 Z"/></g>
<g><path style="opacity:1" fill="#eae11f" d="M 207.5,31.5 C 209.224,42.6422 210.224,54.1422 210.5,66C 210.12,68.3075 209.786,70.6409 209.5,73C 214.377,74.1958 219.377,75.1958 224.5,76C 230.704,82.071 231.037,88.4044 225.5,95C 227.05,97.7784 228.05,100.778 228.5,104C 227.557,106.886 227.557,109.72 228.5,112.5C 227.833,114.833 227.167,117.167 226.5,119.5C 228.646,126.572 228.98,133.739 227.5,141C 227.755,142.326 228.422,143.326 229.5,144C 228.202,146.499 228.536,148.833 230.5,151C 229.5,152 228.5,153 227.5,154C 232.161,155.143 236.995,155.643 242,155.5C 247.28,155.395 252.447,154.728 257.5,153.5C 258.647,153.818 259.481,154.484 260,155.5C 260.333,154.167 260.667,152.833 261,151.5C 261.97,153.274 262.804,155.107 263.5,157C 261.934,159.912 261.101,163.079 261,166.5C 260.833,173.333 260.667,180.167 260.5,187C 260.584,194.755 261.251,202.422 262.5,210C 262.456,212.817 261.29,214.984 259,216.5C 258.148,215.429 257.315,214.429 256.5,213.5C 256.83,194.659 256.497,175.993 255.5,157.5C 244.833,157.5 234.167,157.5 223.5,157.5C 223.5,130.5 223.5,103.5 223.5,76.5C 218.167,76.5 212.833,76.5 207.5,76.5C 207.5,61.5 207.5,46.5 207.5,31.5 Z"/></g>
<g><path style="opacity:1" fill="#d8c816" d="M 62.5,71.5 C 61.1639,74.6674 58.8305,76.6674 55.5,77.5C 55.3398,79.1992 55.5065,80.8659 56,82.5C 58.0591,85.3374 60.2258,87.3374 62.5,88.5C 63.3283,93.1315 63.8283,97.7982 64,102.5C 65,102.833 66,103.167 67,103.5C 67.1735,107.541 67.6735,111.541 68.5,115.5C 69.086,115.291 69.586,114.957 70,114.5C 70.7943,117.471 71.461,120.471 72,123.5C 72.3333,123.167 72.6667,122.833 73,122.5C 74.3681,123.993 74.5348,125.493 73.5,127C 75.2185,130.51 76.0519,134.344 76,138.5C 77.8921,139.617 78.7254,141.284 78.5,143.5C 82.6574,142.814 83.9907,144.314 82.5,148C 83.2642,151.927 84.7642,155.427 87,158.5C 87.0265,162.884 88.1932,166.884 90.5,170.5C 90.2907,171.086 89.9574,171.586 89.5,172C 91.4531,176.198 93.9531,180.031 97,183.5C 97.1753,178.981 97.6753,174.647 98.5,170.5C 98.4877,173.142 99.821,174.475 102.5,174.5C 102.5,185.167 102.5,195.833 102.5,206.5C 101.506,196.347 101.172,186.014 101.5,175.5C 100.5,175.5 99.5,175.5 98.5,175.5C 98.7696,187.204 98.4363,198.871 97.5,210.5C 100.833,210.5 104.167,210.5 107.5,210.5C 104.023,212.986 101.689,216.319 100.5,220.5C 101.274,221.711 102.107,221.711 103,220.5C 103.833,221.333 104.667,222.167 105.5,223C 101.71,225.181 101.71,227.181 105.5,229C 104.227,232.296 104.227,235.796 105.5,239.5C 107.5,239.5 109.5,239.5 111.5,239.5C 111.5,243.833 111.5,248.167 111.5,252.5C 112.873,252.343 114.207,252.51 115.5,253C 117.982,256.33 121.316,257.83 125.5,257.5C 125.38,258.586 124.713,259.253 123.5,259.5C 117.966,261.048 112.633,263.048 107.5,265.5C 104.583,264.709 101.75,264.709 99,265.5C 98.376,263.536 98.876,261.869 100.5,260.5C 99.7112,258.512 98.5445,258.179 97,259.5C 96.0723,257.693 94.9056,256.026 93.5,254.5C 96.7248,253.187 97.8915,250.853 97,247.5C 96.3333,246.167 95.6667,246.167 95,247.5C 93.3648,245.757 93.1981,243.923 94.5,242C 93.5227,240.503 92.5227,239.003 91.5,237.5C 90.5715,231.72 89.2382,226.053 87.5,220.5C 86.5,220.5 85.5,220.5 84.5,220.5C 81.2083,209.359 78.3749,198.026 76,186.5C 75.832,177.482 75.332,168.482 74.5,159.5C 73.5745,160.641 72.7412,160.641 72,159.5C 71.5428,151.664 69.5428,144.331 66,137.5C 64.8438,138.993 64.0104,138.826 63.5,137C 62.7963,133.872 62.2963,130.706 62,127.5C 61.6667,128.167 61.3333,128.833 61,129.5C 59.951,127.893 58.451,127.227 56.5,127.5C 56.4669,122.883 54.8002,119.05 51.5,116C 53.3465,109.558 51.1798,105.058 45,102.5C 44.586,102.957 44.086,103.291 43.5,103.5C 43.2698,98.6275 42.7698,93.6275 42,88.5C 41.3058,87.1824 40.4725,86.3491 39.5,86C 39.6667,85.5 39.8333,85 40,84.5C 40.6667,85.8333 41.3333,85.8333 42,84.5C 42.6172,83.5509 42.4506,82.7175 41.5,82C 44.0226,80.6403 46.0226,78.807 47.5,76.5C 52.5314,75.0451 57.5314,73.3784 62.5,71.5 Z"/></g>
<g><path style="opacity:1" fill="#ecdb14" d="M 36.5,82.5 C 34.4019,84.6686 31.9019,86.3352 29,87.5C 28.1859,89.9018 28.3526,92.2351 29.5,94.5C 32.3275,93.6793 32.9942,94.6793 31.5,97.5C 32.2485,99.0356 33.2485,100.369 34.5,101.5C 34.2907,102.086 33.9574,102.586 33.5,103C 35.1047,105.733 36.1047,108.733 36.5,112C 35.1802,114.215 35.8469,115.715 38.5,116.5C 38.9532,120.704 40.4532,124.371 43,127.5C 43.3333,130.167 43.6667,132.833 44,135.5C 47.0518,140.974 48.2184,146.974 47.5,153.5C 49.5,153.5 51.5,153.5 53.5,153.5C 54.0152,158.207 54.8485,162.874 56,167.5C 59.9029,170.325 60.7362,173.659 58.5,177.5C 59.6685,179.217 61.3352,179.884 63.5,179.5C 63.6054,183.548 63.2721,187.548 62.5,191.5C 63.5,191.5 64.5,191.5 65.5,191.5C 66.5844,195.5 68.5844,199 71.5,202C 68.84,203.676 68.84,205.343 71.5,207C 71.1727,209.685 71.1727,212.518 71.5,215.5C 72.8333,215.5 74.1667,215.5 75.5,215.5C 75.0515,219.033 74.7181,222.366 74.5,225.5C 75.6554,226.95 77.1554,227.95 79,228.5C 79.4986,232.152 79.6653,235.818 79.5,239.5C 80.8333,239.5 82.1667,239.5 83.5,239.5C 83.5,242.167 83.5,244.833 83.5,247.5C 85.1667,247.5 86.8333,247.5 88.5,247.5C 88.7771,250.448 88.4438,253.281 87.5,256C 88.8721,257.242 89.8721,258.742 90.5,260.5C 89.7517,262.416 89.7517,264.416 90.5,266.5C 93.8333,266.833 97.1667,267.167 100.5,267.5C 99.0262,268.675 97.3596,269.675 95.5,270.5C 91.4893,271.227 87.4893,271.893 83.5,272.5C 81.5539,270.913 80.0539,271.246 79,273.5C 77.4877,271.043 76.1544,271.043 75,273.5C 72.4772,267.793 69.9772,262.126 67.5,256.5C 66.3112,255.571 64.9778,255.238 63.5,255.5C 63.6657,251.154 63.499,246.821 63,242.5C 61.8139,240.323 59.9806,239.323 57.5,239.5C 56.9191,233.422 56.7525,227.422 57,221.5C 56.6335,217.719 55.3001,217.052 53,219.5C 52.1816,216.893 51.6816,214.226 51.5,211.5C 51.6493,209.68 52.3159,208.18 53.5,207C 51.6063,205.921 51.273,204.587 52.5,203C 50.8925,203.019 49.2259,203.185 47.5,203.5C 47.5,204.833 47.5,206.167 47.5,207.5C 46.1667,207.5 44.8333,207.5 43.5,207.5C 43.8553,202.151 44.022,196.818 44,191.5C 43.6667,192.833 43.3333,194.167 43,195.5C 42.6667,195.167 42.3333,194.833 42,194.5C 41.5005,188.175 41.3338,181.842 41.5,175.5C 40.5,175.5 39.5,175.5 38.5,175.5C 37.8891,172.279 36.7224,169.279 35,166.5C 32.6922,165.123 31.1922,163.123 30.5,160.5C 31.376,159.749 32.376,159.249 33.5,159C 24.8381,148.916 21.3381,137.083 23,123.5C 21.6012,122.773 20.1012,122.273 18.5,122C 19.5089,119.828 21.1756,118.662 23.5,118.5C 23.6567,117.127 23.49,115.793 23,114.5C 17.7504,115.983 12.9171,115.15 8.5,112C 10.4202,106.803 11.0868,101.303 10.5,95.5C 12.1667,95.5 13.8333,95.5 15.5,95.5C 15.281,94.325 15.6143,93.325 16.5,92.5C 19.1395,90.5272 21.4728,88.1939 23.5,85.5C 27.7011,83.8763 32.0345,82.8763 36.5,82.5 Z"/></g>
<g><path style="opacity:1" fill="#c9bc12" d="M 71.5,67.5 C 70.2599,68.973 69.2599,70.6396 68.5,72.5C 73.3909,78.5225 76.0575,85.5225 76.5,93.5C 75.0852,95.2798 75.2519,96.9464 77,98.5C 77.3333,98.1667 77.6667,97.8333 78,97.5C 78.3333,98.5 78.6667,99.5 79,100.5C 79.2022,98.7444 79.7022,97.0777 80.5,95.5C 82.2788,101.56 83.6121,107.726 84.5,114C 84.6801,116.241 85.5135,116.741 87,115.5C 87.3333,118.833 87.6667,122.167 88,125.5C 90.1511,130.436 92.1511,135.436 94,140.5C 95.6924,142.359 97.1924,144.359 98.5,146.5C 97.7528,146.736 96.9195,147.07 96,147.5C 94.8129,149.044 94.4795,150.711 95,152.5C 99.3115,151.019 101.145,152.685 100.5,157.5C 101.675,157.281 102.675,157.614 103.5,158.5C 102.947,160.727 102.947,163.061 103.5,165.5C 106.127,166.092 108.794,166.425 111.5,166.5C 111.5,167.5 111.5,168.5 111.5,169.5C 112.833,169.5 114.167,169.5 115.5,169.5C 122.5,169.5 129.5,169.5 136.5,169.5C 136.5,161.833 136.5,154.167 136.5,146.5C 137.492,154.316 137.826,162.316 137.5,170.5C 124.5,170.5 111.5,170.5 98.5,170.5C 97.6753,174.647 97.1753,178.981 97,183.5C 93.9531,180.031 91.4531,176.198 89.5,172C 89.9574,171.586 90.2907,171.086 90.5,170.5C 88.1932,166.884 87.0265,162.884 87,158.5C 84.7642,155.427 83.2642,151.927 82.5,148C 83.9907,144.314 82.6574,142.814 78.5,143.5C 78.7254,141.284 77.8921,139.617 76,138.5C 76.0519,134.344 75.2185,130.51 73.5,127C 74.5348,125.493 74.3681,123.993 73,122.5C 72.6667,122.833 72.3333,123.167 72,123.5C 71.461,120.471 70.7943,117.471 70,114.5C 69.586,114.957 69.086,115.291 68.5,115.5C 67.6735,111.541 67.1735,107.541 67,103.5C 66,103.167 65,102.833 64,102.5C 63.8283,97.7982 63.3283,93.1315 62.5,88.5C 60.2258,87.3374 58.0591,85.3374 56,82.5C 55.5065,80.8659 55.3398,79.1992 55.5,77.5C 58.8305,76.6674 61.1639,74.6674 62.5,71.5C 65.5293,70.1599 68.5293,68.8266 71.5,67.5 Z"/></g>
<g><path style="opacity:1" fill="#564b1c" d="M 207.5,76.5 C 212.833,76.5 218.167,76.5 223.5,76.5C 223.5,103.5 223.5,130.5 223.5,157.5C 222.502,131.005 222.169,104.339 222.5,77.5C 217.305,77.8205 212.305,77.4872 207.5,76.5 Z"/></g>
<g><path style="opacity:1" fill="#e3d217" d="M 47.5,76.5 C 46.0226,78.807 44.0226,80.6403 41.5,82C 42.4506,82.7175 42.6172,83.5509 42,84.5C 41.3333,85.8333 40.6667,85.8333 40,84.5C 39.8333,85 39.6667,85.5 39.5,86C 40.4725,86.3491 41.3058,87.1824 42,88.5C 42.7698,93.6275 43.2698,98.6275 43.5,103.5C 44.086,103.291 44.586,102.957 45,102.5C 51.1798,105.058 53.3465,109.558 51.5,116C 54.8002,119.05 56.4669,122.883 56.5,127.5C 58.451,127.227 59.951,127.893 61,129.5C 61.3333,128.833 61.6667,128.167 62,127.5C 62.2963,130.706 62.7963,133.872 63.5,137C 64.0104,138.826 64.8438,138.993 66,137.5C 69.5428,144.331 71.5428,151.664 72,159.5C 72.7412,160.641 73.5745,160.641 74.5,159.5C 75.332,168.482 75.832,177.482 76,186.5C 78.3749,198.026 81.2083,209.359 84.5,220.5C 85.5,220.5 86.5,220.5 87.5,220.5C 89.2382,226.053 90.5715,231.72 91.5,237.5C 92.5227,239.003 93.5227,240.503 94.5,242C 93.1981,243.923 93.3648,245.757 95,247.5C 95.6667,246.167 96.3333,246.167 97,247.5C 97.8915,250.853 96.7248,253.187 93.5,254.5C 94.9056,256.026 96.0723,257.693 97,259.5C 98.5445,258.179 99.7112,258.512 100.5,260.5C 98.876,261.869 98.376,263.536 99,265.5C 101.75,264.709 104.583,264.709 107.5,265.5C 105.401,266.612 103.067,267.279 100.5,267.5C 97.1667,267.167 93.8333,266.833 90.5,266.5C 89.7517,264.416 89.7517,262.416 90.5,260.5C 89.8721,258.742 88.8721,257.242 87.5,256C 88.4438,253.281 88.7771,250.448 88.5,247.5C 86.8333,247.5 85.1667,247.5 83.5,247.5C 83.5,244.833 83.5,242.167 83.5,239.5C 82.1667,239.5 80.8333,239.5 79.5,239.5C 79.6653,235.818 79.4986,232.152 79,228.5C 77.1554,227.95 75.6554,226.95 74.5,225.5C 74.7181,222.366 75.0515,219.033 75.5,215.5C 74.1667,215.5 72.8333,215.5 71.5,215.5C 71.1727,212.518 71.1727,209.685 71.5,207C 68.84,205.343 68.84,203.676 71.5,202C 68.5844,199 66.5844,195.5 65.5,191.5C 64.5,191.5 63.5,191.5 62.5,191.5C 63.2721,187.548 63.6054,183.548 63.5,179.5C 61.3352,179.884 59.6685,179.217 58.5,177.5C 60.7362,173.659 59.9029,170.325 56,167.5C 54.8485,162.874 54.0152,158.207 53.5,153.5C 51.5,153.5 49.5,153.5 47.5,153.5C 48.2184,146.974 47.0518,140.974 44,135.5C 43.6667,132.833 43.3333,130.167 43,127.5C 40.4532,124.371 38.9532,120.704 38.5,116.5C 35.8469,115.715 35.1802,114.215 36.5,112C 36.1047,108.733 35.1047,105.733 33.5,103C 33.9574,102.586 34.2907,102.086 34.5,101.5C 33.2485,100.369 32.2485,99.0356 31.5,97.5C 32.9942,94.6793 32.3275,93.6793 29.5,94.5C 28.3526,92.2351 28.1859,89.9018 29,87.5C 31.9019,86.3352 34.4019,84.6686 36.5,82.5C 36.9528,81.5416 37.6195,80.7083 38.5,80C 41.8309,79.2998 44.8309,78.1331 47.5,76.5 Z"/></g>
<g><path style="opacity:1" fill="#cdc55d" d="M 125.5,142.5 C 130.833,142.5 136.167,142.5 141.5,142.5C 141.5,153.167 141.5,163.833 141.5,174.5C 128.833,174.5 116.167,174.5 103.5,174.5C 115.655,173.505 127.989,173.171 140.5,173.5C 140.5,163.5 140.5,153.5 140.5,143.5C 135.305,143.821 130.305,143.487 125.5,142.5 Z"/></g>
<g><path style="opacity:1" fill="#ab9d04" d="M 225.5,217.5 C 226.552,217.351 227.552,217.517 228.5,218C 202.289,229.343 175.622,239.51 148.5,248.5C 146.516,248.617 144.85,247.95 143.5,246.5C 148.787,244.179 148.787,242.012 143.5,240C 147.539,240.09 148.206,238.923 145.5,236.5C 144.914,236.709 144.414,237.043 144,237.5C 143.415,235.871 142.581,234.371 141.5,233C 141.944,231.238 142.444,231.405 143,233.5C 144.187,231.956 144.52,230.289 144,228.5C 143.29,229.973 142.124,230.64 140.5,230.5C 140.683,228.064 140.016,225.897 138.5,224C 139.167,223.667 139.833,223.333 140.5,223C 139.167,222 139.167,221 140.5,220C 139.437,218.812 138.103,218.312 136.5,218.5C 136.5,217.5 136.5,216.5 136.5,215.5C 130.824,215.053 130.491,214.219 135.5,213C 136.381,212.292 137.047,211.458 137.5,210.5C 150.833,210.5 164.167,210.5 177.5,210.5C 177.5,205.5 177.5,200.5 177.5,195.5C 191.167,195.5 204.833,195.5 218.5,195.5C 218.5,202.833 218.5,210.167 218.5,217.5C 220.833,217.5 223.167,217.5 225.5,217.5 Z"/></g>
<g><path style="opacity:1" fill="#ded32f" d="M 255.5,157.5 C 256.497,175.993 256.83,194.659 256.5,213.5C 256.5,214.5 256.5,215.5 256.5,216.5C 245.986,216.172 235.653,216.506 225.5,217.5C 223.167,217.5 220.833,217.5 218.5,217.5C 218.5,210.167 218.5,202.833 218.5,195.5C 204.833,195.5 191.167,195.5 177.5,195.5C 177.5,200.5 177.5,205.5 177.5,210.5C 164.167,210.5 150.833,210.5 137.5,210.5C 134.167,210.5 130.833,210.5 127.5,210.5C 120.833,210.5 114.167,210.5 107.5,210.5C 104.167,210.5 100.833,210.5 97.5,210.5C 98.4363,198.871 98.7696,187.204 98.5,175.5C 99.5,175.5 100.5,175.5 101.5,175.5C 101.172,186.014 101.506,196.347 102.5,206.5C 126.5,206.5 150.5,206.5 174.5,206.5C 175.487,201.695 175.821,196.695 175.5,191.5C 191.5,191.5 207.5,191.5 223.5,191.5C 223.5,199.167 223.5,206.833 223.5,214.5C 234.167,214.5 244.833,214.5 255.5,214.5C 255.5,195.5 255.5,176.5 255.5,157.5 Z"/></g>
<g><path style="opacity:1" fill="#8d874e" d="M 223.5,191.5 C 207.5,191.5 191.5,191.5 175.5,191.5C 175.821,196.695 175.487,201.695 174.5,206.5C 174.5,201.167 174.5,195.833 174.5,190.5C 191.009,190.17 207.342,190.504 223.5,191.5 Z"/></g>
<g><path style="opacity:1" fill="#bbae0c" d="M 127.5,210.5 C 130.833,210.5 134.167,210.5 137.5,210.5C 137.047,211.458 136.381,212.292 135.5,213C 130.491,214.219 130.824,215.053 136.5,215.5C 136.5,216.5 136.5,217.5 136.5,218.5C 138.103,218.312 139.437,218.812 140.5,220C 139.167,221 139.167,222 140.5,223C 139.833,223.333 139.167,223.667 138.5,224C 140.016,225.897 140.683,228.064 140.5,230.5C 142.124,230.64 143.29,229.973 144,228.5C 144.52,230.289 144.187,231.956 143,233.5C 142.444,231.405 141.944,231.238 141.5,233C 142.581,234.371 143.415,235.871 144,237.5C 144.414,237.043 144.914,236.709 145.5,236.5C 148.206,238.923 147.539,240.09 143.5,240C 148.787,242.012 148.787,244.179 143.5,246.5C 144.85,247.95 146.516,248.617 148.5,248.5C 145.656,249.31 142.99,250.644 140.5,252.5C 138.008,251.661 135.342,250.661 132.5,249.5C 132.172,245.679 131.672,241.679 131,237.5C 129.009,234.778 127.509,231.778 126.5,228.5C 125.264,227.754 123.93,227.421 122.5,227.5C 122.005,225.176 122.005,223.009 122.5,221C 122.236,218.272 121.236,215.939 119.5,214C 120.167,213.333 120.833,212.667 121.5,212C 123.708,211.809 125.708,211.309 127.5,210.5 Z"/></g>
<g><path style="opacity:1" fill="#ccbe13" d="M 107.5,210.5 C 114.167,210.5 120.833,210.5 127.5,210.5C 125.708,211.309 123.708,211.809 121.5,212C 120.833,212.667 120.167,213.333 119.5,214C 121.236,215.939 122.236,218.272 122.5,221C 122.005,223.009 122.005,225.176 122.5,227.5C 123.93,227.421 125.264,227.754 126.5,228.5C 127.509,231.778 129.009,234.778 131,237.5C 131.672,241.679 132.172,245.679 132.5,249.5C 135.342,250.661 138.008,251.661 140.5,252.5C 135.67,254.538 130.67,256.205 125.5,257.5C 121.316,257.83 117.982,256.33 115.5,253C 114.207,252.51 112.873,252.343 111.5,252.5C 111.5,248.167 111.5,243.833 111.5,239.5C 109.5,239.5 107.5,239.5 105.5,239.5C 104.227,235.796 104.227,232.296 105.5,229C 101.71,227.181 101.71,225.181 105.5,223C 104.667,222.167 103.833,221.333 103,220.5C 102.107,221.711 101.274,221.711 100.5,220.5C 101.689,216.319 104.023,212.986 107.5,210.5 Z"/></g>
<g><path style="opacity:1" fill="#f8c925" d="M 239.5,286.5 C 237.167,286.5 234.833,286.5 232.5,286.5C 232.5,291.833 232.5,297.167 232.5,302.5C 230.167,302.5 227.833,302.5 225.5,302.5C 225.5,310.5 225.5,318.5 225.5,326.5C 221.167,326.5 216.833,326.5 212.5,326.5C 215.962,325.518 219.629,325.185 223.5,325.5C 223.5,317.167 223.5,308.833 223.5,300.5C 225.963,300.219 228.13,299.219 230,297.5C 230.2,293.247 230.7,289.08 231.5,285C 234.314,284.968 236.98,285.468 239.5,286.5 Z"/></g>
<g><path style="opacity:1" fill="#c46d09" d="M 111.5,286.5 C 114.5,286.5 117.5,286.5 120.5,286.5C 120.5,291.5 120.5,296.5 120.5,301.5C 119.514,297.03 119.181,292.363 119.5,287.5C 117.208,287.244 115.041,287.577 113,288.5C 113.251,293.456 113.418,298.456 113.5,303.5C 110.5,303.5 107.5,303.5 104.5,303.5C 104.825,310.687 104.491,317.687 103.5,324.5C 103.5,317.5 103.5,310.5 103.5,303.5C 105.635,301.631 108.302,300.964 111.5,301.5C 111.5,296.5 111.5,291.5 111.5,286.5 Z"/></g>
<g><path style="opacity:1" fill="#f6cb20" d="M 139.5,326.5 C 135.5,326.5 131.5,326.5 127.5,326.5C 127.5,318.167 127.5,309.833 127.5,301.5C 125.167,301.5 122.833,301.5 120.5,301.5C 120.5,296.5 120.5,291.5 120.5,286.5C 117.5,286.5 114.5,286.5 111.5,286.5C 111.881,285.069 112.881,284.236 114.5,284C 116.5,283.333 118.5,283.333 120.5,284C 122.941,287.011 124.107,290.511 124,294.5C 125.205,295.071 126.372,295.738 127.5,296.5C 122.409,298.211 122.409,299.544 127.5,300.5C 129.185,299.491 130.518,299.991 131.5,302C 130.55,309.456 130.216,316.956 130.5,324.5C 133.187,324.336 135.854,324.503 138.5,325C 139.056,325.383 139.389,325.883 139.5,326.5 Z"/></g>
<g><path style="opacity:1" fill="#fdbd2e" d="M 103.5,303.5 C 103.5,310.5 103.5,317.5 103.5,324.5C 103.672,325.492 103.338,326.158 102.5,326.5C 98.8333,326.5 95.1667,326.5 91.5,326.5C 94.9619,325.518 98.6286,325.185 102.5,325.5C 102.175,317.981 102.508,310.648 103.5,303.5 Z"/></g>
<g><path style="opacity:1" fill="#faca25" d="M 180.5,286.5 C 181.552,286.351 182.552,286.517 183.5,287C 182.374,290.744 182.207,294.577 183,298.5C 185.629,298.928 187.962,299.928 190,301.5C 190.263,309.533 190.763,317.533 191.5,325.5C 194.059,325.198 196.393,325.532 198.5,326.5C 195.167,326.5 191.833,326.5 188.5,326.5C 188.5,318.167 188.5,309.833 188.5,301.5C 185.833,301.5 183.167,301.5 180.5,301.5C 180.5,296.5 180.5,291.5 180.5,286.5 Z"/></g>
<g><path style="opacity:1" fill="#fdbc2f" d="M 248.5,301.5 C 249.492,309.316 249.826,317.316 249.5,325.5C 253.702,325.183 257.702,325.517 261.5,326.5C 257.167,326.5 252.833,326.5 248.5,326.5C 248.5,318.167 248.5,309.833 248.5,301.5 Z"/></g>
<g><path style="opacity:1" fill="#cb581e" d="M 241.5,301.5 C 243.833,301.5 246.167,301.5 248.5,301.5C 248.5,309.833 248.5,318.167 248.5,326.5C 252.833,326.5 257.167,326.5 261.5,326.5C 261.5,334.167 261.5,341.833 261.5,349.5C 297.167,349.5 332.833,349.5 368.5,349.5C 368.5,350.167 368.5,350.833 368.5,351.5C 332.494,351.833 296.494,351.5 260.5,350.5C 259.536,343.558 259.203,336.558 259.5,329.5C 255.65,329.178 252.483,330.511 250,333.5C 248.4,325.793 245.234,324.793 240.5,330.5C 239.667,329.5 238.833,328.5 238,327.5C 236.111,320.386 234.611,313.219 233.5,306C 234.784,305.316 235.951,305.483 237,306.5C 237.215,312.693 238.382,318.693 240.5,324.5C 242.217,323.332 242.884,321.665 242.5,319.5C 243.5,319.5 244.5,319.5 245.5,319.5C 245.5,317.5 245.5,315.5 245.5,313.5C 239.318,314.01 238.152,312.01 242,307.5C 242.667,308.167 243.333,308.833 244,309.5C 245.128,307.655 245.628,305.655 245.5,303.5C 243.517,303.843 242.183,303.176 241.5,301.5 Z"/></g>
<g><path style="opacity:1" fill="#ca5b19" d="M 239.5,286.5 C 241.36,291.193 242.026,296.193 241.5,301.5C 239.577,297.971 238.911,293.971 239.5,289.5C 238.167,289.5 236.833,289.5 235.5,289.5C 235.575,293.897 235.075,298.23 234,302.5C 231.959,303.423 229.792,303.756 227.5,303.5C 227.5,308.833 227.5,314.167 227.5,319.5C 229.5,319.5 231.5,319.5 233.5,319.5C 233.756,321.792 233.423,323.959 232.5,326C 226.764,327.792 220.93,328.958 215,329.5C 213.915,335.907 213.082,342.24 212.5,348.5C 212.5,341.167 212.5,333.833 212.5,326.5C 216.833,326.5 221.167,326.5 225.5,326.5C 225.5,318.5 225.5,310.5 225.5,302.5C 227.833,302.5 230.167,302.5 232.5,302.5C 232.5,297.167 232.5,291.833 232.5,286.5C 234.833,286.5 237.167,286.5 239.5,286.5 Z"/></g>
<g><path style="opacity:1" fill="#d24f2a" d="M 180.5,286.5 C 180.5,291.5 180.5,296.5 180.5,301.5C 181.99,303.28 183.99,303.946 186.5,303.5C 186.372,311.191 186.206,318.858 186,326.5C 186.903,327.701 188.069,328.535 189.5,329C 192.095,329.226 194.595,329.726 197,330.5C 197.333,336.833 197.667,343.167 198,349.5C 202.631,351.272 207.464,351.938 212.5,351.5C 212.5,350.5 212.5,349.5 212.5,348.5C 213.082,342.24 213.915,335.907 215,329.5C 220.93,328.958 226.764,327.792 232.5,326C 233.423,323.959 233.756,321.792 233.5,319.5C 231.5,319.5 229.5,319.5 227.5,319.5C 227.5,314.167 227.5,308.833 227.5,303.5C 229.792,303.756 231.959,303.423 234,302.5C 235.075,298.23 235.575,293.897 235.5,289.5C 236.833,289.5 238.167,289.5 239.5,289.5C 238.911,293.971 239.577,297.971 241.5,301.5C 242.183,303.176 243.517,303.843 245.5,303.5C 245.628,305.655 245.128,307.655 244,309.5C 243.333,308.833 242.667,308.167 242,307.5C 238.152,312.01 239.318,314.01 245.5,313.5C 245.5,315.5 245.5,317.5 245.5,319.5C 244.5,319.5 243.5,319.5 242.5,319.5C 242.884,321.665 242.217,323.332 240.5,324.5C 238.382,318.693 237.215,312.693 237,306.5C 235.951,305.483 234.784,305.316 233.5,306C 234.611,313.219 236.111,320.386 238,327.5C 238.833,328.5 239.667,329.5 240.5,330.5C 245.234,324.793 248.4,325.793 250,333.5C 252.483,330.511 255.65,329.178 259.5,329.5C 259.203,336.558 259.536,343.558 260.5,350.5C 296.494,351.5 332.494,351.833 368.5,351.5C 368.5,355.5 368.5,359.5 368.5,363.5C 245.5,363.5 122.5,363.5 -0.5,363.5C -0.5,358.833 -0.5,354.167 -0.5,349.5C 30.1667,349.5 60.8333,349.5 91.5,349.5C 92.3283,343.013 92.8283,336.346 93,329.5C 96.0509,327.981 99.2176,326.981 102.5,326.5C 103.338,326.158 103.672,325.492 103.5,324.5C 104.491,317.687 104.825,310.687 104.5,303.5C 107.5,303.5 110.5,303.5 113.5,303.5C 113.418,298.456 113.251,293.456 113,288.5C 115.041,287.577 117.208,287.244 119.5,287.5C 119.181,292.363 119.514,297.03 120.5,301.5C 122.833,301.5 125.167,301.5 127.5,301.5C 127.5,309.833 127.5,318.167 127.5,326.5C 130.962,327.482 134.629,327.815 138.5,327.5C 138.175,335.019 138.508,342.352 139.5,349.5C 139.611,350.117 139.944,350.617 140.5,351C 144.167,351.667 147.833,351.667 151.5,351C 152,350.5 152.5,350 153,349.5C 153.333,343.167 153.667,336.833 154,330.5C 154.804,329.196 155.971,328.529 157.5,328.5C 161.295,330.18 164.129,329.18 166,325.5C 165.753,318.196 165.586,310.863 165.5,303.5C 168.059,303.802 170.393,303.468 172.5,302.5C 172.5,302.167 172.5,301.833 172.5,301.5C 172.334,296.821 172.501,292.155 173,287.5C 175.381,286.565 177.881,286.232 180.5,286.5 Z"/></g>
<g><path style="opacity:1" fill="#fbd222" d="M 163.5,301.5 C 163.5,309.833 163.5,318.167 163.5,326.5C 159.5,326.5 155.5,326.5 151.5,326.5C 151.5,334.167 151.5,341.833 151.5,349.5C 147.5,349.5 143.5,349.5 139.5,349.5C 139.5,341.833 139.5,334.167 139.5,326.5C 141.143,332.783 142.143,339.45 142.5,346.5C 144.747,347.374 147.08,347.708 149.5,347.5C 149.334,340.159 149.5,332.826 150,325.5C 150.5,325 151,324.5 151.5,324C 154.817,323.502 158.15,323.335 161.5,323.5C 160.87,315.757 161.537,308.424 163.5,301.5 Z"/></g>
<g><path style="opacity:1" fill="#d98911" d="M 163.5,301.5 C 166.5,301.5 169.5,301.5 172.5,301.5C 172.5,301.833 172.5,302.167 172.5,302.5C 169.833,302.5 167.167,302.5 164.5,302.5C 164.826,310.684 164.492,318.684 163.5,326.5C 163.5,318.167 163.5,309.833 163.5,301.5 Z"/></g>
<g><path style="opacity:1" fill="#c8770b" d="M 91.5,326.5 C 95.1667,326.5 98.8333,326.5 102.5,326.5C 99.2176,326.981 96.0509,327.981 93,329.5C 92.8283,336.346 92.3283,343.013 91.5,349.5C 91.5,342.5 91.5,335.5 91.5,328.5C 91.5,327.833 91.5,327.167 91.5,326.5 Z"/></g>
<g><path style="opacity:1" fill="#c46211" d="M 172.5,302.5 C 170.393,303.468 168.059,303.802 165.5,303.5C 165.586,310.863 165.753,318.196 166,325.5C 164.129,329.18 161.295,330.18 157.5,328.5C 155.971,328.529 154.804,329.196 154,330.5C 153.667,336.833 153.333,343.167 153,349.5C 152.5,350 152,350.5 151.5,351C 147.833,351.667 144.167,351.667 140.5,351C 139.944,350.617 139.611,350.117 139.5,349.5C 143.5,349.5 147.5,349.5 151.5,349.5C 151.5,341.833 151.5,334.167 151.5,326.5C 155.5,326.5 159.5,326.5 163.5,326.5C 164.492,318.684 164.826,310.684 164.5,302.5C 167.167,302.5 169.833,302.5 172.5,302.5 Z"/></g>
<g><path style="opacity:1" fill="#c65f12" d="M 180.5,301.5 C 183.167,301.5 185.833,301.5 188.5,301.5C 188.5,309.833 188.5,318.167 188.5,326.5C 191.833,326.5 195.167,326.5 198.5,326.5C 199.167,326.5 199.833,326.5 200.5,326.5C 200.5,334.167 200.5,341.833 200.5,349.5C 204.6,349.763 208.6,349.43 212.5,348.5C 212.5,349.5 212.5,350.5 212.5,351.5C 207.464,351.938 202.631,351.272 198,349.5C 197.667,343.167 197.333,336.833 197,330.5C 194.595,329.726 192.095,329.226 189.5,329C 188.069,328.535 186.903,327.701 186,326.5C 186.206,318.858 186.372,311.191 186.5,303.5C 183.99,303.946 181.99,303.28 180.5,301.5 Z"/></g>
<g><path style="opacity:1" fill="#fcca29" d="M 200.5,326.5 C 201.117,326.611 201.617,326.944 202,327.5C 202.333,333.833 202.667,340.167 203,346.5C 205.381,347.435 207.881,347.768 210.5,347.5C 209.872,340.087 210.539,333.087 212.5,326.5C 212.5,333.833 212.5,341.167 212.5,348.5C 208.6,349.43 204.6,349.763 200.5,349.5C 200.5,341.833 200.5,334.167 200.5,326.5 Z"/></g>
<g><path style="opacity:1" fill="#d27a10" d="M 127.5,326.5 C 131.5,326.5 135.5,326.5 139.5,326.5C 139.5,334.167 139.5,341.833 139.5,349.5C 138.508,342.352 138.175,335.019 138.5,327.5C 134.629,327.815 130.962,327.482 127.5,326.5 Z"/></g>
<g><path style="opacity:1" fill="#fdc429" d="M 91.5,328.5 C 91.5,335.5 91.5,342.5 91.5,349.5C 60.8333,349.5 30.1667,349.5 -0.5,349.5C -0.5,349.167 -0.5,348.833 -0.5,348.5C 29.8333,348.5 60.1667,348.5 90.5,348.5C 90.176,341.646 90.5093,334.979 91.5,328.5 Z"/></g>
<g><path style="opacity:1" fill="#fec32c" d="M 261.5,326.5 C 262.492,333.648 262.825,340.981 262.5,348.5C 297.833,348.5 333.167,348.5 368.5,348.5C 368.5,348.833 368.5,349.167 368.5,349.5C 332.833,349.5 297.167,349.5 261.5,349.5C 261.5,341.833 261.5,334.167 261.5,326.5 Z"/></g>
</svg>
